<svg id="visual" viewBox="0 0 1920 1080" width="1920" height="1080" xmlns="http://www.w3.org/2000/svg" xmlns:xlink="http://www.w3.org/1999/xlink" version="1.1"><rect x="0" y="0" width="1920" height="1080" fill="#ffffff"></rect><path d="M0 644L45.7 668.7C91.3 693.3 182.7 742.7 274.2 761.7C365.7 780.7 457.3 769.3 548.8 752.5C640.3 735.7 731.7 713.3 823 699.7C914.3 686 1005.7 681 1097 697.7C1188.3 714.3 1279.7 752.7 1371.2 758.7C1462.7 764.7 1554.3 738.3 1645.8 729.3C1737.3 720.3 1828.7 728.7 1874.3 732.8L1920 737L1920 0L1874.3 0C1828.7 0 1737.3 0 1645.8 0C1554.3 0 1462.7 0 1371.2 0C1279.7 0 1188.3 0 1097 0C1005.7 0 914.3 0 823 0C731.7 0 640.3 0 548.8 0C457.3 0 365.7 0 274.2 0C182.7 0 91.3 0 45.7 0L0 0Z" fill="#c62368"></path><path d="M0 730L45.7 723.8C91.3 717.7 182.7 705.3 274.2 683.2C365.7 661 457.3 629 548.8 623.7C640.3 618.3 731.7 639.7 823 656.7C914.3 673.7 1005.7 686.3 1097 673.8C1188.3 661.3 1279.7 623.7 1371.2 617.8C1462.7 612 1554.3 638 1645.8 662.2C1737.3 686.3 1828.7 708.7 1874.3 719.8L1920 731L1920 0L1874.3 0C1828.7 0 1737.3 0 1645.8 0C1554.3 0 1462.7 0 1371.2 0C1279.7 0 1188.3 0 1097 0C1005.7 0 914.3 0 823 0C731.7 0 640.3 0 548.8 0C457.3 0 365.7 0 274.2 0C182.7 0 91.3 0 45.7 0L0 0Z" fill="#ce2e68"></path><path d="M0 544L45.7 536.8C91.3 529.7 182.7 515.3 274.2 505.5C365.7 495.7 457.3 490.3 548.8 504.3C640.3 518.3 731.7 551.7 823 552.3C914.3 553 1005.7 521 1097 516.8C1188.3 512.7 1279.7 536.3 1371.2 552.3C1462.7 568.3 1554.3 576.7 1645.8 587.3C1737.3 598 1828.7 611 1874.3 617.5L1920 624L1920 0L1874.3 0C1828.7 0 1737.3 0 1645.8 0C1554.3 0 1462.7 0 1371.2 0C1279.7 0 1188.3 0 1097 0C1005.7 0 914.3 0 823 0C731.7 0 640.3 0 548.8 0C457.3 0 365.7 0 274.2 0C182.7 0 91.3 0 45.7 0L0 0Z" fill="#d53867"></path><path d="M0 450L45.7 449.2C91.3 448.3 182.7 446.7 274.2 447.7C365.7 448.7 457.3 452.3 548.8 471C640.3 489.7 731.7 523.3 823 541.3C914.3 559.3 1005.7 561.7 1097 560.2C1188.3 558.7 1279.7 553.3 1371.2 546.2C1462.7 539 1554.3 530 1645.8 510.7C1737.3 491.3 1828.7 461.7 1874.3 446.8L1920 432L1920 0L1874.3 0C1828.7 0 1737.3 0 1645.8 0C1554.3 0 1462.7 0 1371.2 0C1279.7 0 1188.3 0 1097 0C1005.7 0 914.3 0 823 0C731.7 0 640.3 0 548.8 0C457.3 0 365.7 0 274.2 0C182.7 0 91.3 0 45.7 0L0 0Z" fill="#dc4267"></path><path d="M0 374L45.7 368.2C91.3 362.3 182.7 350.7 274.2 359.8C365.7 369 457.3 399 548.8 414C640.3 429 731.7 429 823 418.8C914.3 408.7 1005.7 388.3 1097 376.8C1188.3 365.3 1279.7 362.7 1371.2 364.3C1462.7 366 1554.3 372 1645.8 369.7C1737.3 367.3 1828.7 356.7 1874.3 351.3L1920 346L1920 0L1874.3 0C1828.7 0 1737.3 0 1645.8 0C1554.3 0 1462.7 0 1371.2 0C1279.7 0 1188.3 0 1097 0C1005.7 0 914.3 0 823 0C731.7 0 640.3 0 548.8 0C457.3 0 365.7 0 274.2 0C182.7 0 91.3 0 45.7 0L0 0Z" fill="#e34c67"></path><path d="M0 340L45.7 340.2C91.3 340.3 182.7 340.7 274.2 348.3C365.7 356 457.3 371 548.8 364.8C640.3 358.7 731.7 331.3 823 325.8C914.3 320.3 1005.7 336.7 1097 345.5C1188.3 354.3 1279.7 355.7 1371.2 344.7C1462.7 333.7 1554.3 310.3 1645.8 313.5C1737.3 316.7 1828.7 346.3 1874.3 361.2L1920 376L1920 0L1874.3 0C1828.7 0 1737.3 0 1645.8 0C1554.3 0 1462.7 0 1371.2 0C1279.7 0 1188.3 0 1097 0C1005.7 0 914.3 0 823 0C731.7 0 640.3 0 548.8 0C457.3 0 365.7 0 274.2 0C182.7 0 91.3 0 45.7 0L0 0Z" fill="#e95667"></path><path d="M0 298L45.7 294.7C91.3 291.3 182.7 284.7 274.2 284.7C365.7 284.7 457.3 291.3 548.8 294.7C640.3 298 731.7 298 823 288.5C914.3 279 1005.7 260 1097 247.2C1188.3 234.3 1279.7 227.7 1371.2 223.7C1462.7 219.7 1554.3 218.3 1645.8 223.8C1737.3 229.3 1828.7 241.7 1874.3 247.8L1920 254L1920 0L1874.3 0C1828.7 0 1737.3 0 1645.8 0C1554.3 0 1462.7 0 1371.2 0C1279.7 0 1188.3 0 1097 0C1005.7 0 914.3 0 823 0C731.7 0 640.3 0 548.8 0C457.3 0 365.7 0 274.2 0C182.7 0 91.3 0 45.7 0L0 0Z" fill="#ef5f67"></path><path d="M0 218L45.7 211.8C91.3 205.7 182.7 193.3 274.2 187.2C365.7 181 457.3 181 548.8 175.5C640.3 170 731.7 159 823 161.8C914.3 164.7 1005.7 181.3 1097 192.3C1188.3 203.3 1279.7 208.7 1371.2 206C1462.7 203.3 1554.3 192.7 1645.8 185.5C1737.3 178.3 1828.7 174.7 1874.3 172.8L1920 171L1920 0L1874.3 0C1828.7 0 1737.3 0 1645.8 0C1554.3 0 1462.7 0 1371.2 0C1279.7 0 1188.3 0 1097 0C1005.7 0 914.3 0 823 0C731.7 0 640.3 0 548.8 0C457.3 0 365.7 0 274.2 0C182.7 0 91.3 0 45.7 0L0 0Z" fill="#f56967"></path><path d="M0 139L45.7 130.8C91.3 122.7 182.7 106.3 274.2 101.7C365.7 97 457.3 104 548.8 105.3C640.3 106.7 731.7 102.3 823 104.3C914.3 106.3 1005.7 114.7 1097 112C1188.3 109.3 1279.7 95.7 1371.2 92.7C1462.7 89.7 1554.3 97.3 1645.8 99C1737.3 100.7 1828.7 96.3 1874.3 94.2L1920 92L1920 0L1874.3 0C1828.7 0 1737.3 0 1645.8 0C1554.3 0 1462.7 0 1371.2 0C1279.7 0 1188.3 0 1097 0C1005.7 0 914.3 0 823 0C731.7 0 640.3 0 548.8 0C457.3 0 365.7 0 274.2 0C182.7 0 91.3 0 45.7 0L0 0Z" fill="#fa7268"></path></svg>