<svg xmlns="http://www.w3.org/2000/svg" xmlns:xlink="http://www.w3.org/1999/xlink" width="500" zoomAndPan="magnify" viewBox="0 0 375 374.999991" height="500" preserveAspectRatio="xMidYMid meet" version="1.0"><defs><g/><clipPath id="35c0058b04"><path d="M 75.023438 71.535156 L 99 71.535156 L 99 106.785156 L 75.023438 106.785156 Z M 75.023438 71.535156 " clip-rule="nonzero"/></clipPath><clipPath id="99b3b62685"><path d="M 292 277 L 311.792969 277 L 311.792969 296 L 292 296 Z M 292 277 " clip-rule="nonzero"/></clipPath><clipPath id="b4d49fa89a"><path d="M 258.542969 243.230469 L 299 243.230469 L 299 284 L 258.542969 284 Z M 258.542969 243.230469 " clip-rule="nonzero"/></clipPath></defs><g fill="#000000" fill-opacity="1"><g transform="translate(171.738278, 188.716629)"><g><path d="M 27.875 -39.78125 C 28.21875 -39.78125 28.492188 -39.65625 28.703125 -39.40625 C 28.921875 -39.15625 29.03125 -38.859375 29.03125 -38.515625 C 28.414062 -32.078125 28.050781 -26.101562 27.9375 -20.59375 C 27.894531 -20.007812 27.875 -19.140625 27.875 -17.984375 L 27.8125 -15.375 L 27.53125 -15.375 C 27.289062 -15.375 27.15625 -15.359375 27.125 -15.328125 C 27.082031 -15.285156 26.832031 -15.265625 26.375 -15.265625 L 26.484375 -15.15625 L 26.375 -15.03125 L 26.484375 -15.03125 L 26.71875 -15.09375 C 26.789062 -15.050781 26.984375 -15.03125 27.296875 -15.03125 L 27.703125 -15.03125 C 27.773438 -15.03125 27.8125 -15.015625 27.8125 -14.984375 L 27.8125 -14.859375 L 27.53125 -14.859375 L 27.640625 -14.796875 L 27.53125 -14.6875 L 27.8125 -14.6875 C 27.769531 -11.757812 27.75 -7.382812 27.75 -1.5625 C 27.75 -0.75 27.363281 -0.34375 26.59375 -0.34375 L 18.96875 -0.171875 C 18.425781 -0.171875 18.039062 -0.421875 17.8125 -0.921875 L 16.9375 -3.359375 L 17 -3.359375 L 17 -3.40625 L 16.890625 -3.40625 L 12.3125 -15.5625 C 12.625 -15.707031 12.859375 -15.835938 13.015625 -15.953125 L 12.71875 -15.90625 L 12.609375 -15.953125 L 12.3125 -15.90625 L 12.203125 -15.84375 L 10 -21.625 L 9.59375 -1.15625 C 9.519531 -0.382812 9.117188 0 8.390625 0 L 0.578125 0 C 0.234375 0 -0.0390625 -0.113281 -0.25 -0.34375 C -0.46875 -0.570312 -0.578125 -0.863281 -0.578125 -1.21875 C -0.503906 -3.21875 -0.347656 -6.066406 -0.109375 -9.765625 L -0.0625 -11.15625 C 0.363281 -18.40625 0.691406 -23.550781 0.921875 -26.59375 L 1.96875 -38.6875 C 2.007812 -39.382812 2.394531 -39.75 3.125 -39.78125 L 8.671875 -39.953125 C 9.910156 -40.035156 10.972656 -39.726562 11.859375 -39.03125 C 12.742188 -38.34375 13.457031 -37.378906 14 -36.140625 L 14.046875 -36.078125 L 18.859375 -23.53125 L 19.78125 -38.859375 C 19.78125 -39.585938 20.179688 -39.953125 20.984375 -39.953125 Z M 6.703125 -31.6875 C 6.628906 -31.6875 6.554688 -31.628906 6.484375 -31.515625 L 6.828125 -31.34375 C 6.828125 -31.5 6.785156 -31.613281 6.703125 -31.6875 Z M 6.015625 -28.6875 L 6.015625 -28.859375 L 5.671875 -28.859375 L 5.671875 -28.6875 Z M 6.9375 -28.390625 C 7.09375 -28.503906 7.171875 -28.640625 7.171875 -28.796875 L 6.828125 -28.796875 L 6.828125 -28.5625 C 6.898438 -28.488281 6.9375 -28.429688 6.9375 -28.390625 Z M 9.65625 -28.453125 C 9.46875 -28.640625 9.332031 -28.753906 9.25 -28.796875 C 9.25 -28.640625 9.289062 -28.484375 9.375 -28.328125 L 9.546875 -28.390625 Z M 8.328125 -28.046875 C 8.441406 -28.046875 8.597656 -28.101562 8.796875 -28.21875 L 8.84375 -28.328125 L 7.8125 -28.328125 L 7.8125 -28.515625 L 7.34375 -28.515625 L 7.34375 -28.28125 L 7.8125 -28.28125 L 7.8125 -28.328125 L 7.921875 -28.21875 L 8.15625 -28.109375 C 8.15625 -28.066406 8.210938 -28.046875 8.328125 -28.046875 Z M 9.1875 -27.984375 L 9.3125 -28.15625 L 8.84375 -28.28125 L 8.84375 -28.109375 Z M 9.59375 -27.9375 C 9.789062 -27.9375 9.945312 -27.992188 10.0625 -28.109375 C 9.90625 -28.222656 9.769531 -28.28125 9.65625 -28.28125 C 9.582031 -28.195312 9.5625 -28.140625 9.59375 -28.109375 Z M 7.6875 -27.875 C 7.800781 -27.675781 7.976562 -27.632812 8.21875 -27.75 C 8.09375 -27.832031 7.914062 -27.875 7.6875 -27.875 Z M 6.828125 -24.8125 L 6.828125 -24.578125 L 7.28125 -24.578125 L 7.28125 -24.8125 Z M 9.3125 -24.0625 L 9.890625 -24.0625 L 9.890625 -24.28125 L 9.3125 -24.28125 Z M 10.125 -22.4375 C 10.125 -22.550781 9.988281 -22.664062 9.71875 -22.78125 C 9.789062 -22.476562 9.882812 -22.285156 10 -22.203125 Z M 14.21875 -22.671875 C 14.21875 -22.472656 14.1875 -22.34375 14.125 -22.28125 C 14.070312 -22.226562 13.910156 -22.203125 13.640625 -22.203125 L 13.765625 -22.03125 L 14.515625 -22.546875 Z M 9.375 -22.203125 L 9.375 -22.546875 L 8.96875 -22.546875 L 8.96875 -22.203125 Z M 13.359375 -21.75 L 13.359375 -22.09375 L 13.0625 -22.09375 L 13.0625 -21.75 Z M 7.921875 -21.921875 C 8.078125 -21.722656 8.203125 -21.632812 8.296875 -21.65625 C 8.390625 -21.675781 8.457031 -21.765625 8.5 -21.921875 Z M 14.109375 -21.625 C 14.109375 -21.625 14.109375 -21.664062 14.109375 -21.75 L 14 -21.859375 L 13.9375 -21.6875 L 14.046875 -21.453125 L 14.109375 -21.453125 Z M 10.34375 -21.75 C 10.695312 -21.625 10.96875 -21.625 11.15625 -21.75 Z M 9.078125 -21.28125 L 9.078125 -21.046875 L 9.65625 -21.046875 L 9.65625 -21.28125 Z M 7.28125 -20.703125 C 7.28125 -20.773438 7.242188 -20.890625 7.171875 -21.046875 L 7.171875 -21.171875 C 6.898438 -21.171875 6.707031 -21.109375 6.59375 -20.984375 L 6.59375 -20.703125 Z M 14.34375 -20.703125 L 14.578125 -20.703125 L 14.578125 -20.9375 L 14.34375 -20.9375 Z M 14 -20.1875 L 14 -20.359375 L 13.59375 -20.359375 L 13.59375 -20.1875 Z M 19.078125 -20.1875 L 19.203125 -20.359375 L 19.078125 -20.359375 L 19.03125 -20.234375 Z M 6.9375 -19.71875 C 7.050781 -19.789062 7.109375 -19.847656 7.109375 -19.890625 C 7.109375 -20.046875 6.9375 -20.144531 6.59375 -20.1875 L 6.59375 -19.828125 Z M 7.6875 -19.65625 L 7.6875 -19.890625 L 7.28125 -19.890625 L 7.28125 -19.65625 Z M 14.515625 -19.203125 C 14.441406 -19.429688 14.40625 -19.660156 14.40625 -19.890625 C 14.363281 -19.847656 14.332031 -19.816406 14.3125 -19.796875 C 14.289062 -19.785156 14.28125 -19.757812 14.28125 -19.71875 L 14.109375 -19.546875 L 13.9375 -19.484375 L 13.875 -19.375 C 13.957031 -19.289062 14 -19.234375 14 -19.203125 L 14.109375 -19.140625 Z M 12.265625 -18.90625 C 12.265625 -18.90625 12.253906 -18.914062 12.234375 -18.9375 C 12.210938 -18.957031 12.203125 -18.96875 12.203125 -18.96875 C 12.128906 -18.96875 12.050781 -19.003906 11.96875 -19.078125 C 11.894531 -19.078125 11.859375 -19.003906 11.859375 -18.859375 L 11.859375 -18.734375 L 12.265625 -18.734375 Z M 7 -18.859375 C 6.800781 -18.734375 6.703125 -18.597656 6.703125 -18.453125 L 7.28125 -18.453125 Z M 22.03125 -18.859375 L 22.03125 -18.671875 L 22.140625 -18.671875 L 22.140625 -18.859375 Z M 8.4375 -18.328125 L 8.4375 -17.875 L 8.796875 -17.875 L 8.796875 -18.328125 Z M 5.78125 -18.28125 L 5.78125 -17.875 L 6.25 -17.875 L 6.25 -18.28125 Z M 14.625 -17.34375 C 14.625 -17.113281 14.800781 -17 15.15625 -17 L 15.15625 -17.34375 Z M 16.53125 -16.59375 C 16.144531 -16.789062 15.878906 -16.890625 15.734375 -16.890625 C 15.734375 -16.691406 15.882812 -16.554688 16.1875 -16.484375 C 16.226562 -16.515625 16.285156 -16.53125 16.359375 -16.53125 Z M 14.453125 -16.1875 L 14.6875 -16.53125 L 14.34375 -16.59375 L 14.171875 -16.3125 Z M 14.625 -16.421875 L 14.6875 -16.25 L 15.375 -16.421875 L 15.265625 -16.59375 Z M 20.703125 -16.3125 L 20.875 -16.53125 L 20.640625 -16.59375 L 20.46875 -16.421875 Z M 16.65625 -16.140625 L 16.59375 -16.359375 L 16.140625 -16.25 L 16.1875 -16.078125 Z M 4.96875 -15.78125 C 5.195312 -15.78125 5.390625 -15.820312 5.546875 -15.90625 L 5.4375 -16.25 C 5.125 -16.09375 4.96875 -15.9375 4.96875 -15.78125 Z M 14 -15.953125 C 13.84375 -16.109375 13.707031 -16.207031 13.59375 -16.25 C 13.550781 -16.132812 13.414062 -16.054688 13.1875 -16.015625 C 13.226562 -15.972656 13.285156 -15.953125 13.359375 -15.953125 L 13.46875 -15.90625 L 13.703125 -15.78125 L 13.875 -15.84375 Z M 6.25 -15.84375 L 6.25 -15.609375 L 6.703125 -15.78125 L 6.59375 -16.015625 Z M 6.9375 -15.03125 C 6.59375 -15.226562 6.421875 -15.328125 6.421875 -15.328125 L 6.25 -15.4375 L 5.671875 -15.5625 L 5.78125 -15.03125 Z M 14.75 -14.453125 C 14.707031 -14.679688 14.59375 -14.796875 14.40625 -14.796875 C 14.363281 -14.765625 14.363281 -14.707031 14.40625 -14.625 C 14.40625 -14.625 14.410156 -14.613281 14.421875 -14.59375 C 14.441406 -14.582031 14.453125 -14.578125 14.453125 -14.578125 Z M 20.46875 -14.515625 C 20.550781 -14.316406 20.628906 -14.203125 20.703125 -14.171875 C 20.773438 -14.203125 20.796875 -14.296875 20.765625 -14.453125 L 20.53125 -14.453125 Z M 14.796875 -14.109375 L 14.859375 -14.109375 C 14.898438 -14.109375 14.957031 -14.144531 15.03125 -14.21875 L 15.09375 -14.21875 L 15.15625 -14.28125 L 14.6875 -14.40625 L 14.6875 -14.046875 Z M 17.234375 -13.9375 L 17.109375 -14.34375 L 16.9375 -14.28125 L 16.9375 -13.9375 Z M 7.28125 -14 L 7.28125 -14.28125 L 6.703125 -14.28125 L 6.703125 -14 Z M 15.203125 -13.421875 L 15.5 -13.296875 L 15.609375 -13.53125 L 15.328125 -13.59375 Z M 7.0625 -13.46875 L 7.0625 -13.0625 L 7.40625 -13.0625 L 7.40625 -13.46875 Z M 14.515625 -13.0625 C 14.441406 -13.0625 14.382812 -13.03125 14.34375 -12.96875 C 14.300781 -12.914062 14.320312 -12.875 14.40625 -12.84375 L 14.75 -12.890625 Z M 16.9375 -12.546875 C 16.90625 -12.503906 16.847656 -12.484375 16.765625 -12.484375 L 16.65625 -12.484375 C 16.65625 -12.453125 16.734375 -12.320312 16.890625 -12.09375 L 17.109375 -11.796875 C 17.265625 -11.867188 17.382812 -11.945312 17.46875 -12.03125 C 17.5 -12.070312 17.5625 -12.117188 17.65625 -12.171875 C 17.757812 -12.234375 17.847656 -12.300781 17.921875 -12.375 L 17.578125 -12.3125 L 17.46875 -12.3125 L 17.34375 -12.265625 L 17.234375 -12.203125 C 17.148438 -12.273438 17.109375 -12.332031 17.109375 -12.375 C 17.109375 -12.445312 17.070312 -12.503906 17 -12.546875 Z M 15.5 -12.3125 L 15.375 -12.484375 L 14.984375 -12.4375 L 15.09375 -12.203125 Z M 6.703125 -12.140625 C 6.472656 -12.140625 6.359375 -12.125 6.359375 -12.09375 C 6.285156 -12.050781 6.25 -11.988281 6.25 -11.90625 L 6.59375 -11.6875 L 6.703125 -11.96875 Z M 17.921875 -11.734375 L 17.75 -11.6875 L 17.8125 -11.796875 L 17.34375 -11.796875 C 17.3125 -11.753906 17.234375 -11.734375 17.109375 -11.734375 C 17.148438 -11.578125 17.226562 -11.5 17.34375 -11.5 L 17.46875 -11.390625 C 17.582031 -11.503906 17.640625 -11.5625 17.640625 -11.5625 L 18.15625 -11.5625 L 18.625 -11.6875 L 18.5 -11.859375 L 18.046875 -11.734375 Z M 18.96875 -11.21875 L 19.203125 -11.328125 L 19.03125 -11.6875 L 18.734375 -11.5625 Z M 14.578125 -11.390625 C 14.691406 -11.347656 14.863281 -11.347656 15.09375 -11.390625 C 14.976562 -11.546875 14.804688 -11.625 14.578125 -11.625 Z M 9.140625 -11.21875 L 9.140625 -10.875 L 9.546875 -10.875 L 9.546875 -11.21875 Z M 17.46875 -10.8125 C 17.695312 -10.65625 17.96875 -10.617188 18.28125 -10.703125 L 18.28125 -10.875 C 18.28125 -11.03125 18.160156 -11.125 17.921875 -11.15625 L 17.46875 -11.046875 Z M 15.90625 -10.75 L 15.90625 -11.046875 L 15.671875 -11.046875 L 15.671875 -10.75 Z M 17.109375 -10.640625 C 17.078125 -10.710938 17.007812 -10.757812 16.90625 -10.78125 C 16.8125 -10.800781 16.726562 -10.832031 16.65625 -10.875 L 16.421875 -10.921875 L 16.65625 -10.53125 Z M 20.46875 -9.828125 C 20.695312 -9.753906 20.832031 -9.71875 20.875 -9.71875 C 20.945312 -9.75 20.972656 -9.800781 20.953125 -9.875 C 20.941406 -9.957031 20.894531 -10.019531 20.8125 -10.0625 Z M 18.28125 -9.015625 L 18.5 -9.078125 L 18.15625 -9.890625 L 17.921875 -9.828125 Z M 15.671875 -9.828125 L 15.671875 -9.546875 L 16.078125 -9.546875 L 16.078125 -9.828125 Z M 16.015625 -9.015625 C 15.941406 -9.097656 15.960938 -9.234375 16.078125 -9.421875 L 15.5 -9.25 C 15.5 -9.175781 15.578125 -9.140625 15.734375 -9.140625 C 15.734375 -9.097656 15.769531 -9.078125 15.84375 -9.078125 Z M 19.828125 -8.09375 C 19.910156 -8.019531 19.988281 -7.984375 20.0625 -7.984375 L 20.53125 -8.09375 C 20.0625 -8.320312 19.8125 -8.515625 19.78125 -8.671875 L 19.78125 -8.96875 C 19.78125 -8.96875 19.785156 -8.972656 19.796875 -8.984375 C 19.816406 -9.003906 19.828125 -9.015625 19.828125 -9.015625 L 19.78125 -9.078125 L 19.4375 -8.96875 C 19.4375 -8.925781 19.335938 -8.882812 19.140625 -8.84375 L 19.03125 -8.734375 L 18.859375 -8.609375 L 19.25 -8.5625 L 19.609375 -8.5 C 19.679688 -8.34375 19.753906 -8.207031 19.828125 -8.09375 Z M 17.8125 -8.5625 C 17.8125 -8.632812 17.695312 -8.726562 17.46875 -8.84375 L 17.703125 -8.328125 Z M 18.625 -7.453125 C 18.925781 -7.535156 19.097656 -7.597656 19.140625 -7.640625 L 19.3125 -7.75 L 19.4375 -7.859375 L 19.546875 -7.921875 L 19.375 -8.328125 L 19.140625 -8.328125 L 18.859375 -8.4375 C 18.859375 -8.363281 18.894531 -8.25 18.96875 -8.09375 C 18.96875 -8.09375 18.976562 -8.082031 19 -8.0625 C 19.019531 -8.039062 19.03125 -8.03125 19.03125 -8.03125 L 19.03125 -7.921875 C 19.101562 -7.878906 19.101562 -7.820312 19.03125 -7.75 C 19.03125 -7.707031 18.976562 -7.664062 18.875 -7.625 C 18.78125 -7.59375 18.695312 -7.535156 18.625 -7.453125 Z M 6.359375 -8.328125 L 6.359375 -7.921875 L 6.703125 -7.921875 L 6.703125 -8.328125 Z M 17.109375 -7.171875 L 17.34375 -7.0625 L 18.625 -7.75 C 18.425781 -7.675781 18.210938 -7.640625 17.984375 -7.640625 C 17.910156 -7.554688 17.773438 -7.515625 17.578125 -7.515625 C 17.265625 -7.441406 17.050781 -7.363281 16.9375 -7.28125 L 17.0625 -7.234375 L 17.109375 -7.234375 Z M 21.5625 -7.75 C 21.5625 -7.550781 21.53125 -7.429688 21.46875 -7.390625 C 21.414062 -7.359375 21.253906 -7.34375 20.984375 -7.34375 L 21.109375 -7.109375 L 21.859375 -7.6875 Z M 6.828125 -7.28125 C 7.128906 -7.394531 7.320312 -7.492188 7.40625 -7.578125 C 7.25 -7.648438 7.054688 -7.6875 6.828125 -7.6875 Z M 20.59375 -6.296875 L 20.875 -6.25 L 20.9375 -6.59375 L 20.640625 -6.59375 Z M 7.515625 -6.484375 L 7.515625 -6.125 L 8.09375 -6.125 L 8.09375 -6.484375 Z M 19.484375 -6.359375 L 19.140625 -6.015625 L 19.25 -5.953125 C 19.289062 -5.953125 19.320312 -5.941406 19.34375 -5.921875 C 19.363281 -5.910156 19.375 -5.882812 19.375 -5.84375 L 19.890625 -5.953125 Z M 20.1875 -6.015625 C 20.070312 -5.859375 20.085938 -5.78125 20.234375 -5.78125 C 20.347656 -5.78125 20.425781 -5.800781 20.46875 -5.84375 L 20.40625 -5.90625 C 20.332031 -5.90625 20.257812 -5.941406 20.1875 -6.015625 Z M 20.8125 -5.546875 C 20.8125 -5.515625 20.753906 -5.5 20.640625 -5.5 L 20.59375 -5.5 L 20.359375 -5.140625 L 20.359375 -5.09375 L 20.40625 -5.09375 L 20.640625 -5.4375 C 20.796875 -5.476562 20.953125 -5.476562 21.109375 -5.4375 L 21.171875 -5.5 Z M 21.859375 -5.5 C 21.742188 -5.414062 21.644531 -5.316406 21.5625 -5.203125 L 21.515625 -5.203125 L 21.5625 -5.140625 C 21.644531 -5.296875 21.742188 -5.394531 21.859375 -5.4375 L 21.921875 -5.4375 Z M 18.046875 -4.453125 C 18.117188 -4.492188 18.195312 -4.570312 18.28125 -4.6875 L 17.703125 -4.5625 L 17.578125 -4.5625 L 17.34375 -4.515625 C 17.5 -4.398438 17.5 -4.265625 17.34375 -4.109375 C 17.613281 -4.109375 17.769531 -4.164062 17.8125 -4.28125 C 17.925781 -4.351562 18 -4.410156 18.03125 -4.453125 C 18.070312 -4.492188 18.078125 -4.492188 18.046875 -4.453125 Z M 18.046875 -4.453125 "/></g></g></g><path stroke-linecap="butt" transform="matrix(0.646401, 0, 0, 0.646401, 0.0000045, 166.701435)" fill="none" stroke-linejoin="miter" d="M 53.366382 18.077449 C 53.366382 17.110557 53.577889 16.367259 54.006948 15.853598 C 54.460178 15.315764 55.082615 15.049869 55.880301 15.049869 L 126.239814 15.049869 C 127.829143 15.049869 128.626829 15.974459 128.626829 17.817597 L 128.493881 33.130747 C 128.493881 35.517761 127.387998 36.708247 125.176233 36.708247 L 86.36761 36.708247 C 84.349223 36.708247 83.34003 37.536148 83.34003 39.19195 L 83.34003 51.598382 C 83.34003 53.362959 84.137716 54.239205 85.727044 54.239205 L 109.869126 54.239205 C 111.627661 54.239205 112.50995 55.121494 112.50995 56.886072 L 112.50995 73.002951 C 112.50995 74.507676 111.712264 75.257017 110.122935 75.257017 L 85.436977 75.257017 C 84.832669 75.257017 84.331094 75.426224 83.920165 75.770679 C 83.533408 76.115134 83.34003 76.59858 83.34003 77.221017 L 83.34003 109.164707 C 83.34003 110.58483 82.983489 111.581937 82.276449 112.162072 C 81.569409 112.718035 80.46957 113.002059 78.989017 113.002059 L 56.943882 113.002059 C 55.608362 113.002059 54.677729 112.742207 54.139895 112.228546 C 53.620191 111.690712 53.366382 110.850725 53.366382 109.714627 Z M 183.94513 114.319449 C 174.342685 114.319449 165.948855 112.282933 158.769683 108.197815 C 151.596554 104.094568 146.073184 98.28113 142.205616 90.757503 C 138.338049 83.239919 136.404265 74.41703 136.404265 64.300924 C 136.404265 54.178774 138.356178 45.313585 142.27209 37.705354 C 146.200088 30.078994 151.747631 24.180954 158.902631 20.011233 C 166.07576 15.823382 174.427288 13.726435 183.94513 13.726435 C 193.354197 13.726435 201.621122 15.823382 208.733821 20.011233 C 215.864648 24.180954 221.388018 30.078994 225.297887 37.705354 C 229.231929 45.313585 231.195928 54.178774 231.195928 64.300924 C 231.195928 74.332427 229.250058 83.131143 225.364361 90.697072 C 221.496794 98.256958 215.991553 104.094568 208.860725 108.197815 C 201.748027 112.282933 193.444843 114.319449 183.94513 114.319449 Z M 183.94513 93.724652 C 187.812698 93.724652 190.88258 92.781933 193.160819 90.890451 C 195.46323 88.998968 197.137161 85.947216 198.188656 81.735193 C 199.246194 77.505041 199.771942 71.818508 199.771942 64.687681 C 199.771942 53.767845 198.533112 45.936021 196.061494 41.186165 C 193.614049 36.442352 189.577275 34.067423 183.94513 34.067423 C 178.210253 34.067423 174.082833 36.442352 171.568914 41.186165 C 169.073125 45.936021 167.828251 53.767845 167.828251 64.687681 C 167.828251 71.818508 168.353999 77.505041 169.411537 81.735193 C 170.463032 85.947216 172.149049 88.998968 174.46959 90.890451 C 176.80826 92.781933 179.968787 93.724652 183.94513 93.724652 Z M 325.594791 74.320341 C 325.594791 88.763288 321.944774 99.042558 314.638697 105.170235 C 307.33262 111.267697 296.896231 114.319449 283.341616 114.319449 C 268.107025 114.319449 257.253664 110.808423 250.787575 103.780328 C 244.315442 96.734103 241.082397 86.031819 241.082397 71.679518 L 241.082397 18.077449 C 241.082397 17.110557 241.299948 16.367259 241.729006 15.853598 C 242.182237 15.315764 242.804674 15.049869 243.596316 15.049869 L 268.675074 15.049869 C 270.264403 15.049869 271.062089 15.974459 271.062089 17.817597 L 271.062089 74.840045 C 271.062089 81.348436 272.306962 86.068077 274.796709 88.986882 C 277.310628 91.887558 280.9123 93.337896 285.595682 93.337896 C 290.17029 93.337896 293.868651 91.887558 296.684724 88.986882 C 299.500796 86.068077 300.902789 81.221532 300.902789 74.453289 L 300.902789 18.077449 C 300.902789 16.059062 301.742777 15.049869 303.422751 15.049869 L 323.207776 15.049869 C 324.797105 15.049869 325.594791 15.974459 325.594791 17.817597 Z M 423.021234 15.049869 C 424.332581 15.049869 424.991276 15.787124 424.991276 17.27372 L 424.991276 110.615045 C 424.991276 111.322085 424.701209 111.90222 424.121073 112.35545 C 423.559068 112.784509 422.839942 113.002059 421.957653 113.002059 L 403.876775 113.002059 C 403.085132 113.002059 402.438523 112.869112 401.942991 112.615303 C 401.471631 112.331278 400.921711 111.805531 400.299275 111.032017 L 364.010614 61.787005 C 363.641986 61.333774 363.33379 61.152482 363.073937 61.237085 C 362.814085 61.321688 362.687181 61.593627 362.687181 62.040814 L 362.687181 110.101384 C 362.771784 111.152879 362.566319 111.90222 362.07683 112.35545 C 361.599427 112.784509 360.741311 113.002059 359.496437 113.002059 L 341.542464 113.002059 C 339.348828 113.002059 338.255031 112.11977 338.255031 110.355193 L 338.255031 18.077449 C 338.255031 16.059062 339.221923 15.049869 341.155707 15.049869 L 362.687181 15.049869 C 363.823279 15.049869 364.675352 15.200946 365.231315 15.497056 C 365.81145 15.79921 366.458059 16.445819 367.165099 17.43084 L 398.848937 61.527153 C 399.386771 62.300666 399.870216 62.687423 400.299275 62.687423 C 400.752505 62.687423 400.976099 62.119374 400.976099 60.977233 L 400.976099 17.817597 C 400.976099 15.974459 401.942991 15.049869 403.876775 15.049869 Z M 457.8656 15.049869 C 468.326162 15.049869 474.840596 15.09217 477.396816 15.176773 C 494.56519 15.79921 507.545714 20.440291 516.332344 29.100016 C 525.143146 37.759742 529.548547 49.308057 529.548547 63.751004 C 529.548547 73.444095 527.560375 81.982959 523.584033 89.373639 C 519.631862 96.764319 513.733822 102.559627 505.889911 106.747477 C 498.070173 110.917199 488.528159 113.002059 477.269912 113.002059 L 442.55245 113.002059 C 441.222974 113.002059 440.243996 112.699906 439.621559 112.095598 C 439.017251 111.473161 438.721141 110.451882 438.721141 109.037803 L 438.721141 18.337301 C 438.721141 17.110557 438.97495 16.264527 439.494654 15.787124 C 440.032488 15.297635 440.963121 15.049869 442.298641 15.049869 Z M 470.018222 35.77157 C 469.564992 35.77157 469.232623 35.904518 469.015072 36.158327 C 468.803564 36.418179 468.694789 36.901625 468.694789 37.608665 L 468.694789 90.274057 C 468.694789 91.071743 468.821694 91.609576 469.081546 91.887558 C 469.341398 92.14741 469.824844 92.274315 470.531884 92.274315 L 471.46856 92.274315 C 480.170587 92.274315 486.787753 90.008162 491.320059 85.475856 C 495.852365 80.937507 498.124561 73.571 498.124561 63.364247 C 498.124561 54.553445 496.402285 48.002753 492.963775 43.700084 C 489.549438 39.385329 484.53973 36.913711 477.946736 36.291275 Z M 470.018222 35.77157 " stroke="#ffdf2b" stroke-width="4.9509" stroke-opacity="1" stroke-miterlimit="4"/><g fill="#ffdf2b" fill-opacity="1"><g transform="translate(71.943748, 168.152482)"><g><path d="M 4.296875 -59.40625 C 4.296875 -60.007812 4.429688 -60.476562 4.703125 -60.8125 C 4.984375 -61.144531 5.367188 -61.3125 5.859375 -61.3125 L 21.5625 -61.3125 C 22.550781 -61.3125 23.046875 -60.734375 23.046875 -59.578125 L 23.046875 -14.703125 C 23.046875 -14.265625 23.113281 -13.960938 23.25 -13.796875 C 23.394531 -13.628906 23.660156 -13.546875 24.046875 -13.546875 L 48.90625 -13.546875 C 50.175781 -13.546875 50.8125 -13.023438 50.8125 -11.984375 L 50.8125 -1.8125 C 50.8125 -1.257812 50.628906 -0.816406 50.265625 -0.484375 C 49.910156 -0.160156 49.40625 0 48.75 0 L 6.53125 0 C 5.695312 0 5.113281 -0.160156 4.78125 -0.484375 C 4.457031 -0.816406 4.296875 -1.34375 4.296875 -2.0625 Z M 4.296875 -59.40625 "/></g></g></g><g fill="#ffdf2b" fill-opacity="1"><g transform="translate(125.06933, 168.152482)"><g><path d="M 32.3125 0.828125 C 26.300781 0.828125 21.050781 -0.453125 16.5625 -3.015625 C 12.070312 -5.578125 8.613281 -9.210938 6.1875 -13.921875 C 3.769531 -18.628906 2.5625 -24.148438 2.5625 -30.484375 C 2.5625 -36.816406 3.785156 -42.363281 6.234375 -47.125 C 8.691406 -51.894531 12.164062 -55.585938 16.65625 -58.203125 C 21.144531 -60.828125 26.363281 -62.140625 32.3125 -62.140625 C 38.195312 -62.140625 43.367188 -60.828125 47.828125 -58.203125 C 52.296875 -55.585938 55.753906 -51.894531 58.203125 -47.125 C 60.660156 -42.363281 61.890625 -36.816406 61.890625 -30.484375 C 61.890625 -24.203125 60.675781 -18.691406 58.25 -13.953125 C 55.820312 -9.222656 52.378906 -5.578125 47.921875 -3.015625 C 43.460938 -0.453125 38.257812 0.828125 32.3125 0.828125 Z M 32.3125 -12.0625 C 34.726562 -12.0625 36.648438 -12.648438 38.078125 -13.828125 C 39.515625 -15.015625 40.5625 -16.929688 41.21875 -19.578125 C 41.882812 -22.222656 42.21875 -25.773438 42.21875 -30.234375 C 42.21875 -37.066406 41.445312 -41.96875 39.90625 -44.9375 C 38.363281 -47.914062 35.832031 -49.40625 32.3125 -49.40625 C 28.726562 -49.40625 26.148438 -47.914062 24.578125 -44.9375 C 23.003906 -41.96875 22.21875 -37.066406 22.21875 -30.234375 C 22.21875 -25.773438 22.546875 -22.222656 23.203125 -19.578125 C 23.867188 -16.929688 24.929688 -15.015625 26.390625 -13.828125 C 27.859375 -12.648438 29.832031 -12.0625 32.3125 -12.0625 Z M 32.3125 -12.0625 "/></g></g></g><g fill="#ffdf2b" fill-opacity="1"><g transform="translate(189.514049, 168.152482)"><g><path d="M 40.8125 -44.859375 C 39.488281 -46.296875 38.070312 -47.398438 36.5625 -48.171875 C 35.050781 -48.941406 32.863281 -49.328125 30 -49.328125 C 27.132812 -49.328125 25.007812 -48.910156 23.625 -48.078125 C 22.25 -47.253906 21.5625 -46.265625 21.5625 -45.109375 C 21.5625 -43.128906 23.328125 -41.726562 26.859375 -40.90625 L 40.5625 -37.34375 C 45.582031 -36.082031 49.359375 -33.863281 51.890625 -30.6875 C 54.421875 -27.519531 55.6875 -23.734375 55.6875 -19.328125 C 55.6875 -15.253906 54.613281 -11.703125 52.46875 -8.671875 C 50.320312 -5.640625 47.25 -3.296875 43.25 -1.640625 C 39.257812 0.00390625 34.59375 0.828125 29.25 0.828125 C 23.1875 0.828125 17.660156 -0.175781 12.671875 -2.1875 C 7.691406 -4.195312 4.238281 -6.828125 2.3125 -10.078125 C 2.039062 -10.628906 1.90625 -11.039062 1.90625 -11.3125 C 1.90625 -11.863281 2.207031 -12.363281 2.8125 -12.8125 L 11.3125 -18.671875 C 11.925781 -19.054688 12.476562 -19.25 12.96875 -19.25 C 13.570312 -19.25 14.066406 -19.003906 14.453125 -18.515625 C 16.328125 -16.085938 18.226562 -14.375 20.15625 -13.375 C 22.082031 -12.382812 24.644531 -11.890625 27.84375 -11.890625 C 30.925781 -11.890625 33.363281 -12.316406 35.15625 -13.171875 C 36.945312 -14.023438 37.84375 -15.195312 37.84375 -16.6875 C 37.84375 -17.738281 37.398438 -18.648438 36.515625 -19.421875 C 35.640625 -20.191406 34.347656 -20.769531 32.640625 -21.15625 L 20.078125 -24.203125 C 15.117188 -25.421875 11.179688 -27.695312 8.265625 -31.03125 C 5.347656 -34.363281 3.890625 -38.203125 3.890625 -42.546875 C 3.890625 -46.128906 4.929688 -49.421875 7.015625 -52.421875 C 9.109375 -55.421875 12.082031 -57.789062 15.9375 -59.53125 C 19.800781 -61.269531 24.265625 -62.140625 29.328125 -62.140625 C 34.285156 -62.140625 38.882812 -61.328125 43.125 -59.703125 C 47.375 -58.078125 50.429688 -55.910156 52.296875 -53.203125 C 52.679688 -52.710938 52.875 -52.25 52.875 -51.8125 C 52.875 -51.425781 52.679688 -51.066406 52.296875 -50.734375 L 43.296875 -44.203125 C 43.015625 -43.984375 42.710938 -43.875 42.390625 -43.875 C 42.003906 -43.875 41.476562 -44.203125 40.8125 -44.859375 Z M 40.8125 -44.859375 "/></g></g></g><g fill="#ffdf2b" fill-opacity="1"><g transform="translate(247.431691, 168.152482)"><g><path d="M 2.3125 -59.40625 C 2.3125 -59.957031 2.488281 -60.410156 2.84375 -60.765625 C 3.207031 -61.128906 3.71875 -61.3125 4.375 -61.3125 L 53.78125 -61.3125 C 54.445312 -61.3125 54.957031 -61.128906 55.3125 -60.765625 C 55.675781 -60.410156 55.859375 -59.957031 55.859375 -59.40625 L 55.859375 -49.578125 C 55.859375 -48.523438 55.25 -48 54.03125 -48 L 39.40625 -48 C 38.75 -48 38.421875 -47.722656 38.421875 -47.171875 L 38.421875 -1.8125 C 38.421875 -1.207031 38.28125 -0.753906 38 -0.453125 C 37.726562 -0.148438 37.34375 0 36.84375 0 L 21.15625 0 C 20.164062 0 19.671875 -0.550781 19.671875 -1.65625 L 19.671875 -46.84375 C 19.671875 -47.613281 19.363281 -48 18.75 -48 L 4.21875 -48 C 2.945312 -48 2.3125 -48.523438 2.3125 -49.578125 Z M 2.3125 -59.40625 "/></g></g></g><g clip-path="url(#35c0058b04)"><path fill="#ee4d4d" d="M 86.019531 106.285156 C 86.019531 106.285156 86.019531 106.285156 86.941406 105.476562 L 86.019531 106.285156 C 86.253906 106.550781 86.589844 106.703125 86.941406 106.703125 C 87.296875 106.703125 87.632812 106.550781 87.867188 106.285156 L 86.941406 105.476562 C 87.867188 106.285156 87.867188 106.285156 87.867188 106.285156 L 87.878906 106.273438 L 87.902344 106.246094 L 87.945312 106.195312 L 87.996094 106.132812 C 88.078125 106.039062 88.199219 105.898438 88.347656 105.71875 C 88.644531 105.355469 89.070312 104.832031 89.582031 104.171875 C 90.597656 102.851562 91.953125 100.988281 93.3125 98.800781 C 95.996094 94.484375 98.820312 88.699219 98.820312 83.339844 C 98.820312 76.777344 93.503906 71.453125 86.941406 71.453125 C 80.382812 71.453125 75.0625 76.777344 75.0625 83.339844 C 75.0625 88.699219 77.890625 94.484375 80.574219 98.800781 C 81.933594 100.988281 83.289062 102.851562 84.304688 104.171875 C 84.816406 104.832031 85.238281 105.355469 85.539062 105.71875 C 85.6875 105.898438 85.808594 106.039062 85.890625 106.132812 C 85.929688 106.183594 85.960938 106.21875 85.984375 106.246094 L 86.007812 106.273438 Z M 86.019531 106.285156 " fill-opacity="1" fill-rule="nonzero"/></g><path fill="#eceff1" d="M 86.941406 78.832031 C 85.8125 78.832031 84.894531 79.75 84.894531 80.882812 L 84.894531 82.519531 C 84.894531 83.199219 84.34375 83.75 83.667969 83.75 C 82.988281 83.75 82.4375 83.199219 82.4375 82.519531 L 82.4375 80.882812 C 82.4375 78.390625 84.453125 76.375 86.941406 76.375 C 89.433594 76.375 91.449219 78.390625 91.449219 80.882812 L 91.449219 82.519531 C 91.449219 82.847656 91.320312 83.160156 91.089844 83.390625 L 88.171875 86.308594 L 88.171875 89.078125 C 88.171875 89.757812 87.621094 90.308594 86.941406 90.308594 C 86.265625 90.308594 85.714844 89.757812 85.714844 89.078125 L 85.714844 85.800781 C 85.714844 85.472656 85.84375 85.160156 86.074219 84.929688 L 88.992188 82.011719 L 88.992188 80.882812 C 88.992188 79.75 88.074219 78.832031 86.941406 78.832031 Z M 86.941406 78.832031 " fill-opacity="1" fill-rule="evenodd"/><path fill="#eceff1" d="M 86.941406 91.128906 C 87.621094 91.128906 88.171875 91.679688 88.171875 92.359375 L 88.171875 94 C 88.171875 94.675781 87.621094 95.226562 86.941406 95.226562 C 86.265625 95.226562 85.714844 94.675781 85.714844 94 L 85.714844 92.359375 C 85.714844 91.679688 86.265625 91.128906 86.941406 91.128906 Z M 86.941406 91.128906 " fill-opacity="1" fill-rule="evenodd"/><g clip-path="url(#99b3b62685)"><path fill="#75d481" d="M 310.617188 289.984375 L 295.875 277.269531 C 295.386719 277.875 294.863281 278.457031 294.304688 279.011719 C 293.753906 279.566406 293.175781 280.089844 292.578125 280.574219 L 305.285156 295.328125 C 306.429688 296.476562 308.882812 295.882812 310.027344 294.734375 C 311.171875 293.585938 311.765625 291.132812 310.617188 289.984375 " fill-opacity="1" fill-rule="nonzero"/></g><g clip-path="url(#b4d49fa89a)"><path fill="#75d481" d="M 262.988281 263.273438 C 262.988281 254.660156 269.988281 247.652344 278.589844 247.652344 C 287.191406 247.652344 294.1875 254.660156 294.1875 263.273438 C 294.1875 271.886719 287.191406 278.894531 278.589844 278.894531 C 269.988281 278.894531 262.988281 271.886719 262.988281 263.273438 Z M 294.199219 275.824219 C 297.058594 272.277344 298.609375 267.894531 298.609375 263.273438 C 298.609375 257.917969 296.527344 252.886719 292.746094 249.101562 C 288.960938 245.3125 283.9375 243.226562 278.589844 243.226562 C 273.242188 243.226562 268.214844 245.3125 264.433594 249.101562 C 260.652344 252.886719 258.570312 257.917969 258.570312 263.273438 C 258.570312 268.628906 260.652344 273.664062 264.433594 277.449219 C 268.214844 281.234375 273.242188 283.320312 278.589844 283.320312 C 283.207031 283.320312 287.589844 281.761719 291.132812 278.898438 C 291.691406 278.449219 292.230469 277.964844 292.746094 277.449219 C 293.261719 276.929688 293.746094 276.390625 294.199219 275.824219 " fill-opacity="1" fill-rule="nonzero"/></g><path fill="#75d481" d="M 285.296875 257.519531 L 276.109375 266.714844 L 271.820312 262.421875 C 270.957031 261.554688 269.554688 261.554688 268.691406 262.421875 C 267.824219 263.285156 267.824219 264.691406 268.691406 265.554688 L 274.542969 271.417969 C 274.542969 271.417969 274.542969 271.417969 274.546875 271.417969 C 274.976562 271.851562 275.542969 272.066406 276.109375 272.066406 C 276.605469 272.066406 277.101562 271.902344 277.507812 271.570312 C 277.566406 271.523438 277.621094 271.472656 277.675781 271.417969 L 288.425781 260.65625 C 289.292969 259.789062 289.292969 258.386719 288.425781 257.519531 C 287.5625 256.652344 286.160156 256.652344 285.296875 257.519531 " fill-opacity="1" fill-rule="nonzero"/></svg>