<svg id="visual" viewBox="0 0 1920 1080" width="1920" height="1080" xmlns="http://www.w3.org/2000/svg" xmlns:xlink="http://www.w3.org/1999/xlink" version="1.1"><rect x="0" y="0" width="1920" height="1080" fill="#ffffff"></rect><path d="M0 524L45.7 521.8C91.3 519.7 182.7 515.3 274.2 525.5C365.7 535.7 457.3 560.3 548.8 566.7C640.3 573 731.7 561 823 542.8C914.3 524.7 1005.7 500.3 1097 504C1188.3 507.7 1279.7 539.3 1371.2 546.5C1462.7 553.7 1554.3 536.3 1645.8 536.5C1737.3 536.7 1828.7 554.3 1874.3 563.2L1920 572L1920 0L1874.3 0C1828.7 0 1737.3 0 1645.8 0C1554.3 0 1462.7 0 1371.2 0C1279.7 0 1188.3 0 1097 0C1005.7 0 914.3 0 823 0C731.7 0 640.3 0 548.8 0C457.3 0 365.7 0 274.2 0C182.7 0 91.3 0 45.7 0L0 0Z" fill="#c62368"></path><path d="M0 429L45.7 432C91.3 435 182.7 441 274.2 456.7C365.7 472.3 457.3 497.7 548.8 505.5C640.3 513.3 731.7 503.7 823 500.8C914.3 498 1005.7 502 1097 502.2C1188.3 502.3 1279.7 498.7 1371.2 500.2C1462.7 501.7 1554.3 508.3 1645.8 507.5C1737.3 506.7 1828.7 498.3 1874.3 494.2L1920 490L1920 0L1874.3 0C1828.7 0 1737.3 0 1645.8 0C1554.3 0 1462.7 0 1371.2 0C1279.7 0 1188.3 0 1097 0C1005.7 0 914.3 0 823 0C731.7 0 640.3 0 548.8 0C457.3 0 365.7 0 274.2 0C182.7 0 91.3 0 45.7 0L0 0Z" fill="#ce2e68"></path><path d="M0 460L45.7 461C91.3 462 182.7 464 274.2 463.7C365.7 463.3 457.3 460.7 548.8 451.3C640.3 442 731.7 426 823 426.3C914.3 426.7 1005.7 443.3 1097 450.8C1188.3 458.3 1279.7 456.7 1371.2 457.3C1462.7 458 1554.3 461 1645.8 449.3C1737.3 437.7 1828.7 411.3 1874.3 398.2L1920 385L1920 0L1874.3 0C1828.7 0 1737.3 0 1645.8 0C1554.3 0 1462.7 0 1371.2 0C1279.7 0 1188.3 0 1097 0C1005.7 0 914.3 0 823 0C731.7 0 640.3 0 548.8 0C457.3 0 365.7 0 274.2 0C182.7 0 91.3 0 45.7 0L0 0Z" fill="#d53867"></path><path d="M0 404L45.7 399.7C91.3 395.3 182.7 386.7 274.2 372.7C365.7 358.7 457.3 339.3 548.8 341.5C640.3 343.7 731.7 367.3 823 370.7C914.3 374 1005.7 357 1097 353.5C1188.3 350 1279.7 360 1371.2 357.2C1462.7 354.3 1554.3 338.7 1645.8 335.5C1737.3 332.3 1828.7 341.7 1874.3 346.3L1920 351L1920 0L1874.3 0C1828.7 0 1737.3 0 1645.8 0C1554.3 0 1462.7 0 1371.2 0C1279.7 0 1188.3 0 1097 0C1005.7 0 914.3 0 823 0C731.7 0 640.3 0 548.8 0C457.3 0 365.7 0 274.2 0C182.7 0 91.3 0 45.7 0L0 0Z" fill="#dc4267"></path><path d="M0 258L45.7 263.8C91.3 269.7 182.7 281.3 274.2 283.8C365.7 286.3 457.3 279.7 548.8 283.3C640.3 287 731.7 301 823 310.3C914.3 319.7 1005.7 324.3 1097 320.5C1188.3 316.7 1279.7 304.3 1371.2 298.3C1462.7 292.3 1554.3 292.7 1645.8 291.2C1737.3 289.7 1828.7 286.3 1874.3 284.7L1920 283L1920 0L1874.3 0C1828.7 0 1737.3 0 1645.8 0C1554.3 0 1462.7 0 1371.2 0C1279.7 0 1188.3 0 1097 0C1005.7 0 914.3 0 823 0C731.7 0 640.3 0 548.8 0C457.3 0 365.7 0 274.2 0C182.7 0 91.3 0 45.7 0L0 0Z" fill="#e34c67"></path><path d="M0 239L45.7 240.8C91.3 242.7 182.7 246.3 274.2 249.7C365.7 253 457.3 256 548.8 253.2C640.3 250.3 731.7 241.7 823 235C914.3 228.3 1005.7 223.7 1097 230.7C1188.3 237.7 1279.7 256.3 1371.2 256C1462.7 255.7 1554.3 236.3 1645.8 229.8C1737.3 223.3 1828.7 229.7 1874.3 232.8L1920 236L1920 0L1874.3 0C1828.7 0 1737.3 0 1645.8 0C1554.3 0 1462.7 0 1371.2 0C1279.7 0 1188.3 0 1097 0C1005.7 0 914.3 0 823 0C731.7 0 640.3 0 548.8 0C457.3 0 365.7 0 274.2 0C182.7 0 91.3 0 45.7 0L0 0Z" fill="#e95667"></path><path d="M0 184L45.7 187C91.3 190 182.7 196 274.2 192.3C365.7 188.7 457.3 175.3 548.8 172.5C640.3 169.7 731.7 177.3 823 184.8C914.3 192.3 1005.7 199.7 1097 199.8C1188.3 200 1279.7 193 1371.2 188.5C1462.7 184 1554.3 182 1645.8 186.7C1737.3 191.3 1828.7 202.7 1874.3 208.3L1920 214L1920 0L1874.3 0C1828.7 0 1737.3 0 1645.8 0C1554.3 0 1462.7 0 1371.2 0C1279.7 0 1188.3 0 1097 0C1005.7 0 914.3 0 823 0C731.7 0 640.3 0 548.8 0C457.3 0 365.7 0 274.2 0C182.7 0 91.3 0 45.7 0L0 0Z" fill="#ef5f67"></path><path d="M0 132L45.7 133.2C91.3 134.3 182.7 136.7 274.2 133.5C365.7 130.3 457.3 121.7 548.8 119.2C640.3 116.7 731.7 120.3 823 123C914.3 125.7 1005.7 127.3 1097 124.5C1188.3 121.7 1279.7 114.3 1371.2 115.3C1462.7 116.3 1554.3 125.7 1645.8 132.8C1737.3 140 1828.7 145 1874.3 147.5L1920 150L1920 0L1874.3 0C1828.7 0 1737.3 0 1645.8 0C1554.3 0 1462.7 0 1371.2 0C1279.7 0 1188.3 0 1097 0C1005.7 0 914.3 0 823 0C731.7 0 640.3 0 548.8 0C457.3 0 365.7 0 274.2 0C182.7 0 91.3 0 45.7 0L0 0Z" fill="#f56967"></path><path d="M0 54L45.7 55.3C91.3 56.7 182.7 59.3 274.2 66.3C365.7 73.3 457.3 84.7 548.8 89.8C640.3 95 731.7 94 823 89.2C914.3 84.3 1005.7 75.7 1097 72.5C1188.3 69.3 1279.7 71.7 1371.2 75.2C1462.7 78.7 1554.3 83.3 1645.8 84.2C1737.3 85 1828.7 82 1874.3 80.5L1920 79L1920 0L1874.3 0C1828.7 0 1737.3 0 1645.8 0C1554.3 0 1462.7 0 1371.2 0C1279.7 0 1188.3 0 1097 0C1005.7 0 914.3 0 823 0C731.7 0 640.3 0 548.8 0C457.3 0 365.7 0 274.2 0C182.7 0 91.3 0 45.7 0L0 0Z" fill="#fa7268"></path></svg>