<svg id="visual" viewBox="0 0 1920 1080" width="1920" height="1080" xmlns="http://www.w3.org/2000/svg" xmlns:xlink="http://www.w3.org/1999/xlink" version="1.1"><rect x="0" y="0" width="1920" height="1080" fill="#ffffff"></rect><path d="M0 748L45.7 745C91.3 742 182.7 736 274.2 750.7C365.7 765.3 457.3 800.7 548.8 809.7C640.3 818.7 731.7 801.3 823 775.3C914.3 749.3 1005.7 714.7 1097 720.2C1188.3 725.7 1279.7 771.3 1371.2 781.5C1462.7 791.7 1554.3 766.3 1645.8 766.5C1737.3 766.7 1828.7 792.3 1874.3 805.2L1920 818L1920 0L1874.3 0C1828.7 0 1737.3 0 1645.8 0C1554.3 0 1462.7 0 1371.2 0C1279.7 0 1188.3 0 1097 0C1005.7 0 914.3 0 823 0C731.7 0 640.3 0 548.8 0C457.3 0 365.7 0 274.2 0C182.7 0 91.3 0 45.7 0L0 0Z" fill="#c62368"></path><path d="M0 613L45.7 617.3C91.3 621.7 182.7 630.3 274.2 652.7C365.7 675 457.3 711 548.8 722.2C640.3 733.3 731.7 719.7 823 715.7C914.3 711.7 1005.7 717.3 1097 717.7C1188.3 718 1279.7 713 1371.2 715.2C1462.7 717.3 1554.3 726.7 1645.8 725.5C1737.3 724.3 1828.7 712.7 1874.3 706.8L1920 701L1920 0L1874.3 0C1828.7 0 1737.3 0 1645.8 0C1554.3 0 1462.7 0 1371.2 0C1279.7 0 1188.3 0 1097 0C1005.7 0 914.3 0 823 0C731.7 0 640.3 0 548.8 0C457.3 0 365.7 0 274.2 0C182.7 0 91.3 0 45.7 0L0 0Z" fill="#ce2e68"></path><path d="M0 658L45.7 659.5C91.3 661 182.7 664 274.2 663.5C365.7 663 457.3 659 548.8 645.5C640.3 632 731.7 609 823 609.5C914.3 610 1005.7 634 1097 644.7C1188.3 655.3 1279.7 652.7 1371.2 653.5C1462.7 654.3 1554.3 658.7 1645.8 642C1737.3 625.3 1828.7 587.7 1874.3 568.8L1920 550L1920 0L1874.3 0C1828.7 0 1737.3 0 1645.8 0C1554.3 0 1462.7 0 1371.2 0C1279.7 0 1188.3 0 1097 0C1005.7 0 914.3 0 823 0C731.7 0 640.3 0 548.8 0C457.3 0 365.7 0 274.2 0C182.7 0 91.3 0 45.7 0L0 0Z" fill="#d53867"></path><path d="M0 578L45.7 571.8C91.3 565.7 182.7 553.3 274.2 533.2C365.7 513 457.3 485 548.8 488.2C640.3 491.3 731.7 525.7 823 530.5C914.3 535.3 1005.7 510.7 1097 505.5C1188.3 500.3 1279.7 514.7 1371.2 510.5C1462.7 506.3 1554.3 483.7 1645.8 479.2C1737.3 474.7 1828.7 488.3 1874.3 495.2L1920 502L1920 0L1874.3 0C1828.7 0 1737.3 0 1645.8 0C1554.3 0 1462.7 0 1371.2 0C1279.7 0 1188.3 0 1097 0C1005.7 0 914.3 0 823 0C731.7 0 640.3 0 548.8 0C457.3 0 365.7 0 274.2 0C182.7 0 91.3 0 45.7 0L0 0Z" fill="#dc4267"></path><path d="M0 370L45.7 378.2C91.3 386.3 182.7 402.7 274.2 406C365.7 409.3 457.3 399.7 548.8 404.8C640.3 410 731.7 430 823 443.3C914.3 456.7 1005.7 463.3 1097 458C1188.3 452.7 1279.7 435.3 1371.2 426.8C1462.7 418.3 1554.3 418.7 1645.8 416.5C1737.3 414.3 1828.7 409.7 1874.3 407.3L1920 405L1920 0L1874.3 0C1828.7 0 1737.3 0 1645.8 0C1554.3 0 1462.7 0 1371.2 0C1279.7 0 1188.3 0 1097 0C1005.7 0 914.3 0 823 0C731.7 0 640.3 0 548.8 0C457.3 0 365.7 0 274.2 0C182.7 0 91.3 0 45.7 0L0 0Z" fill="#e34c67"></path><path d="M0 342L45.7 344.5C91.3 347 182.7 352 274.2 356.7C365.7 361.3 457.3 365.7 548.8 361.8C640.3 358 731.7 346 823 336.7C914.3 327.3 1005.7 320.7 1097 330.7C1188.3 340.7 1279.7 367.3 1371.2 366.7C1462.7 366 1554.3 338 1645.8 328.7C1737.3 319.3 1828.7 328.7 1874.3 333.3L1920 338L1920 0L1874.3 0C1828.7 0 1737.3 0 1645.8 0C1554.3 0 1462.7 0 1371.2 0C1279.7 0 1188.3 0 1097 0C1005.7 0 914.3 0 823 0C731.7 0 640.3 0 548.8 0C457.3 0 365.7 0 274.2 0C182.7 0 91.3 0 45.7 0L0 0Z" fill="#e95667"></path><path d="M0 263L45.7 267.3C91.3 271.7 182.7 280.3 274.2 275.2C365.7 270 457.3 251 548.8 247C640.3 243 731.7 254 823 264.7C914.3 275.3 1005.7 285.7 1097 285.8C1188.3 286 1279.7 276 1371.2 269.5C1462.7 263 1554.3 260 1645.8 266.8C1737.3 273.7 1828.7 290.3 1874.3 298.7L1920 307L1920 0L1874.3 0C1828.7 0 1737.3 0 1645.8 0C1554.3 0 1462.7 0 1371.2 0C1279.7 0 1188.3 0 1097 0C1005.7 0 914.3 0 823 0C731.7 0 640.3 0 548.8 0C457.3 0 365.7 0 274.2 0C182.7 0 91.3 0 45.7 0L0 0Z" fill="#ef5f67"></path><path d="M0 189L45.7 190.7C91.3 192.3 182.7 195.7 274.2 191.2C365.7 186.7 457.3 174.3 548.8 170.8C640.3 167.3 731.7 172.7 823 176.5C914.3 180.3 1005.7 182.7 1097 178.5C1188.3 174.3 1279.7 163.7 1371.2 165.2C1462.7 166.7 1554.3 180.3 1645.8 190.5C1737.3 200.7 1828.7 207.3 1874.3 210.7L1920 214L1920 0L1874.3 0C1828.7 0 1737.3 0 1645.8 0C1554.3 0 1462.7 0 1371.2 0C1279.7 0 1188.3 0 1097 0C1005.7 0 914.3 0 823 0C731.7 0 640.3 0 548.8 0C457.3 0 365.7 0 274.2 0C182.7 0 91.3 0 45.7 0L0 0Z" fill="#f56967"></path><path d="M0 77L45.7 78.8C91.3 80.7 182.7 84.3 274.2 94.5C365.7 104.7 457.3 121.3 548.8 128.8C640.3 136.3 731.7 134.7 823 127.8C914.3 121 1005.7 109 1097 104.3C1188.3 99.7 1279.7 102.3 1371.2 107.2C1462.7 112 1554.3 119 1645.8 120.3C1737.3 121.7 1828.7 117.3 1874.3 115.2L1920 113L1920 0L1874.3 0C1828.7 0 1737.3 0 1645.8 0C1554.3 0 1462.7 0 1371.2 0C1279.7 0 1188.3 0 1097 0C1005.7 0 914.3 0 823 0C731.7 0 640.3 0 548.8 0C457.3 0 365.7 0 274.2 0C182.7 0 91.3 0 45.7 0L0 0Z" fill="#fa7268"></path></svg>